<svg width="33" height="39" viewBox="0 0 33 39" fill="none" xmlns="http://www.w3.org/2000/svg">
<g filter="url(#filter0_d_1_460)">
<path d="M14.0529 6.58633C14.6703 3.85278 18.5652 3.85278 19.1827 6.58633V6.58633C19.5829 8.35794 21.6159 9.20005 23.1516 8.2303V8.2303C25.5211 6.734 28.2752 9.48811 26.7789 11.8576V11.8576C25.8092 13.3933 26.6513 15.4264 28.4229 15.8265V15.8265C31.1564 16.444 31.1564 20.3389 28.4229 20.9564V20.9564C26.6513 21.3565 25.8092 23.3896 26.7789 24.9253V24.9253C28.2752 27.2948 25.5211 30.0489 23.1516 28.5526V28.5526C21.6159 27.5828 19.5829 28.425 19.1827 30.1966V30.1966C18.5652 32.9301 14.6703 32.9301 14.0529 30.1966V30.1966C13.6527 28.425 11.6196 27.5828 10.084 28.5526V28.5526C7.71443 30.0489 4.96032 27.2948 6.45662 24.9253V24.9253C7.42637 23.3896 6.58426 21.3565 4.81264 20.9564V20.9564C2.0791 20.3389 2.0791 16.444 4.81264 15.8265V15.8265C6.58426 15.4264 7.42637 13.3933 6.45662 11.8576V11.8576C4.96032 9.48811 7.71443 6.734 10.084 8.2303V8.2303C11.6196 9.20005 13.6527 8.35794 14.0529 6.58633V6.58633Z" fill="#572BE8"/>
</g>
<path d="M10.7898 18.6028L14.169 21.982L22.4458 13.7053" stroke="#F1F1F1" stroke-width="3.37654" stroke-linecap="round" stroke-linejoin="round"/>
<defs>
<filter id="filter0_d_1_460" x="0.762482" y="4.53616" width="31.7105" height="33.7106" filterUnits="userSpaceOnUse" color-interpolation-filters="sRGB">
<feFlood flood-opacity="0" result="BackgroundImageFix"/>
<feColorMatrix in="SourceAlpha" type="matrix" values="0 0 0 0 0 0 0 0 0 0 0 0 0 0 0 0 0 0 127 0" result="hardAlpha"/>
<feOffset dy="4"/>
<feGaussianBlur stdDeviation="1"/>
<feComposite in2="hardAlpha" operator="out"/>
<feColorMatrix type="matrix" values="0 0 0 0 0 0 0 0 0 0 0 0 0 0 0 0 0 0 0.25 0"/>
<feBlend mode="normal" in2="BackgroundImageFix" result="effect1_dropShadow_1_460"/>
<feBlend mode="normal" in="SourceGraphic" in2="effect1_dropShadow_1_460" result="shape"/>
</filter>
</defs>
</svg>
